<svg xmlns="http://www.w3.org/2000/svg" viewBox="0 0 800 600">
  <defs>
    <pattern id="grid" width="40" height="40" patternUnits="userSpaceOnUse">
      <path d="M 40 0 L 0 0 0 40" fill="none" stroke="#3C210C" stroke-opacity="0.06" stroke-width="0.5"/>
    </pattern>
  </defs>
  <rect width="800" height="600" fill="#FAF8F5"/>
  <rect width="800" height="600" fill="url(#grid)"/>
  <path d="M 30 30 L 60 30 M 30 30 L 30 60" fill="none" stroke="#3C210C" stroke-width="2"/>
  <path d="M 770 30 L 740 30 M 770 30 L 770 60" fill="none" stroke="#3C210C" stroke-width="2"/>
  <path d="M 30 570 L 60 570 M 30 570 L 30 540" fill="none" stroke="#3C210C" stroke-width="2"/>
  <path d="M 770 570 L 740 570 M 770 570 L 770 540" fill="none" stroke="#3C210C" stroke-width="2"/>
  <rect x="280" y="160" width="160" height="200" rx="8" fill="none" stroke="#3C210C" stroke-width="2.5"/>
  <line x1="310" y1="200" x2="410" y2="200" stroke="#3C210C" stroke-width="2"/>
  <line x1="310" y1="230" x2="390" y2="230" stroke="#3C210C" stroke-width="2"/>
  <line x1="310" y1="260" x2="370" y2="260" stroke="#3C210C" stroke-width="2"/>
  <line x1="310" y1="290" x2="400" y2="290" stroke="#3C210C" stroke-width="2"/>
  <line x1="310" y1="320" x2="350" y2="320" stroke="#3C210C" stroke-width="2"/>
  <circle cx="460" cy="320" r="45" fill="none" stroke="#3C210C" stroke-width="2.5"/>
  <line x1="492" y1="352" x2="520" y2="380" stroke="#3C210C" stroke-width="4" stroke-linecap="round"/>
  <circle cx="460" cy="320" r="15" fill="none" stroke="#3C210C" stroke-width="1.5" stroke-dasharray="3,3"/>
  <text x="400" y="550" text-anchor="middle" font-family="monospace" font-size="14" fill="#3C210C">analyse - overview</text>
</svg>