<svg xmlns="http://www.w3.org/2000/svg" viewBox="0 0 800 600">
  <defs>
    <pattern id="grid" width="40" height="40" patternUnits="userSpaceOnUse">
      <path d="M 40 0 L 0 0 0 40" fill="none" stroke="#3C210C" stroke-opacity="0.06" stroke-width="0.5"/>
    </pattern>
  </defs>
  <rect width="800" height="600" fill="#FAF8F5"/>
  <rect width="800" height="600" fill="url(#grid)"/>
  <path d="M 30 30 L 60 30 M 30 30 L 30 60" fill="none" stroke="#3C210C" stroke-width="2"/>
  <path d="M 770 30 L 740 30 M 770 30 L 770 60" fill="none" stroke="#3C210C" stroke-width="2"/>
  <path d="M 30 570 L 60 570 M 30 570 L 30 540" fill="none" stroke="#3C210C" stroke-width="2"/>
  <path d="M 770 570 L 740 570 M 770 570 L 770 540" fill="none" stroke="#3C210C" stroke-width="2"/>
  <line x1="240" y1="380" x2="560" y2="380" stroke="#3C210C" stroke-width="2"/>
  <line x1="240" y1="380" x2="240" y2="160" stroke="#3C210C" stroke-width="2"/>
  <rect x="270" y="300" width="50" height="80" fill="none" stroke="#3C210C" stroke-width="2.5"/>
  <rect x="340" y="260" width="50" height="120" fill="none" stroke="#3C210C" stroke-width="2.5"/>
  <rect x="410" y="220" width="50" height="160" fill="none" stroke="#3C210C" stroke-width="2.5"/>
  <rect x="480" y="180" width="50" height="200" fill="none" stroke="#3C210C" stroke-width="2.5"/>
  <path d="M 295 280 L 365 240 L 435 200 L 505 160" fill="none" stroke="#3C210C" stroke-width="3" stroke-linecap="round"/>
  <polygon points="505,150 520,160 505,170" fill="#3C210C"/>
  <text x="400" y="550" text-anchor="middle" font-family="monospace" font-size="14" fill="#3C210C">analyse - importance</text>
</svg>