<svg xmlns="http://www.w3.org/2000/svg" viewBox="0 0 800 600">
  <defs>
    <pattern id="grid" width="40" height="40" patternUnits="userSpaceOnUse">
      <path d="M 40 0 L 0 0 0 40" fill="none" stroke="#3C210C" stroke-opacity="0.06" stroke-width="0.5"/>
    </pattern>
  </defs>
  <rect width="800" height="600" fill="#FAF8F5"/>
  <rect width="800" height="600" fill="url(#grid)"/>
  <path d="M 30 30 L 60 30 M 30 30 L 30 60" fill="none" stroke="#3C210C" stroke-width="2"/>
  <path d="M 770 30 L 740 30 M 770 30 L 770 60" fill="none" stroke="#3C210C" stroke-width="2"/>
  <path d="M 30 570 L 60 570 M 30 570 L 30 540" fill="none" stroke="#3C210C" stroke-width="2"/>
  <path d="M 770 570 L 740 570 M 770 570 L 770 540" fill="none" stroke="#3C210C" stroke-width="2"/>
  <rect x="200" y="140" width="170" height="130" rx="8" fill="none" stroke="#3C210C" stroke-width="2"/>
  <rect x="430" y="140" width="170" height="130" rx="8" fill="none" stroke="#3C210C" stroke-width="2"/>
  <rect x="200" y="300" width="170" height="130" rx="8" fill="none" stroke="#3C210C" stroke-width="2"/>
  <rect x="430" y="300" width="170" height="130" rx="8" fill="none" stroke="#3C210C" stroke-width="2"/>
  <line x1="220" y1="200" x2="220" y2="250" stroke="#3C210C" stroke-width="2"/>
  <line x1="220" y1="250" x2="250" y2="250" stroke="#3C210C" stroke-width="2"/>
  <line x1="250" y1="250" x2="250" y2="220" stroke="#3C210C" stroke-width="2"/>
  <line x1="250" y1="220" x2="280" y2="220" stroke="#3C210C" stroke-width="2"/>
  <line x1="280" y1="220" x2="280" y2="240" stroke="#3C210C" stroke-width="2"/>
  <line x1="280" y1="240" x2="340" y2="240" stroke="#3C210C" stroke-width="2"/>
  <circle cx="460" cy="205" r="30" fill="none" stroke="#3C210C" stroke-width="2"/>
  <line x1="460" y1="205" x2="475" y2="190" stroke="#3C210C" stroke-width="2.5" stroke-linecap="round"/>
  <rect x="445" y="350" width="15" height="60" fill="none" stroke="#3C210C" stroke-width="2"/>
  <rect x="470" y="330" width="15" height="80" fill="none" stroke="#3C210C" stroke-width="2"/>
  <rect x="495" y="310" width="15" height="100" fill="none" stroke="#3C210C" stroke-width="2"/>
  <rect x="520" y="290" width="15" height="120" fill="none" stroke="#3C210C" stroke-width="2"/>
  <rect x="220" y="340" width="120" height="8" fill="#3C210C" opacity="0.3"/>
  <rect x="220" y="360" width="90" height="8" fill="#3C210C" opacity="0.3"/>
  <rect x="220" y="380" width="100" height="8" fill="#3C210C" opacity="0.3"/>
  <rect x="220" y="400" width="70" height="8" fill="#3C210C" opacity="0.3"/>
  <text x="400" y="550" text-anchor="middle" font-family="monospace" font-size="14" fill="#3C210C">analyse - results</text>
</svg>