<svg xmlns="http://www.w3.org/2000/svg" viewBox="0 0 800 600">
  <defs>
    <pattern id="grid" width="40" height="40" patternUnits="userSpaceOnUse">
      <path d="M 40 0 L 0 0 0 40" fill="none" stroke="#3C210C" stroke-opacity="0.06" stroke-width="0.5"/>
    </pattern>
  </defs>
  <rect width="800" height="600" fill="#FAF8F5"/>
  <rect width="800" height="600" fill="url(#grid)"/>
  <path d="M 30 30 L 60 30 M 30 30 L 30 60" fill="none" stroke="#3C210C" stroke-width="2"/>
  <path d="M 770 30 L 740 30 M 770 30 L 770 60" fill="none" stroke="#3C210C" stroke-width="2"/>
  <path d="M 30 570 L 60 570 M 30 570 L 30 540" fill="none" stroke="#3C210C" stroke-width="2"/>
  <path d="M 770 570 L 740 570 M 770 570 L 770 540" fill="none" stroke="#3C210C" stroke-width="2"/>
  <rect x="280" y="150" width="180" height="240" rx="6" fill="none" stroke="#3C210C" stroke-width="2.5"/>
  <line x1="310" y1="190" x2="430" y2="190" stroke="#3C210C" stroke-width="1.5"/>
  <line x1="310" y1="215" x2="430" y2="215" stroke="#3C210C" stroke-width="1.5"/>
  <line x1="310" y1="240" x2="400" y2="240" stroke="#3C210C" stroke-width="1.5"/>
  <line x1="310" y1="265" x2="420" y2="265" stroke="#3C210C" stroke-width="1.5"/>
  <line x1="310" y1="290" x2="380" y2="290" stroke="#3C210C" stroke-width="1.5"/>
  <line x1="310" y1="315" x2="410" y2="315" stroke="#3C210C" stroke-width="1.5"/>
  <line x1="310" y1="340" x2="360" y2="340" stroke="#3C210C" stroke-width="1.5"/>
  <line x1="440" y1="320" x2="480" y2="280" stroke="#3C210C" stroke-width="3" stroke-linecap="round"/>
  <ellipse cx="485" cy="275" rx="12" ry="8" fill="none" stroke="#3C210C" stroke-width="2" transform="rotate(-45 485 275)"/>
  <text x="400" y="550" text-anchor="middle" font-family="monospace" font-size="14" fill="#3C210C">content - overview</text>
</svg>
