<svg xmlns="http://www.w3.org/2000/svg" viewBox="0 0 800 600">
  <defs>
    <pattern id="grid" width="40" height="40" patternUnits="userSpaceOnUse">
      <path d="M 40 0 L 0 0 0 40" fill="none" stroke="#3C210C" stroke-opacity="0.06" stroke-width="0.5"/>
    </pattern>
  </defs>
  <rect width="800" height="600" fill="#FAF8F5"/>
  <rect width="800" height="600" fill="url(#grid)"/>
  <path d="M 30 30 L 60 30 M 30 30 L 30 60" fill="none" stroke="#3C210C" stroke-width="2"/>
  <path d="M 770 30 L 740 30 M 770 30 L 770 60" fill="none" stroke="#3C210C" stroke-width="2"/>
  <path d="M 30 570 L 60 570 M 30 570 L 30 540" fill="none" stroke="#3C210C" stroke-width="2"/>
  <path d="M 770 570 L 740 570 M 770 570 L 770 540" fill="none" stroke="#3C210C" stroke-width="2"/>
  <rect x="320" y="240" width="160" height="130" rx="4" fill="none" stroke="#3C210C" stroke-width="2"/>
  <rect x="310" y="230" width="160" height="130" rx="4" fill="none" stroke="#3C210C" stroke-width="2"/>
  <rect x="300" y="220" width="160" height="130" rx="4" fill="none" stroke="#3C210C" stroke-width="2"/>
  <line x1="330" y1="260" x2="430" y2="260" stroke="#3C210C" stroke-width="1.5"/>
  <line x1="330" y1="285" x2="430" y2="285" stroke="#3C210C" stroke-width="1.5"/>
  <line x1="330" y1="310" x2="400" y2="310" stroke="#3C210C" stroke-width="1.5"/>
  <polygon points="380,160 390,185 418,185 395,200 405,225 380,210 355,225 365,200 342,185 370,185" fill="none" stroke="#3C210C" stroke-width="2"/>
  <text x="400" y="550" text-anchor="middle" font-family="monospace" font-size="14" fill="#3C210C">content - importance</text>
</svg>
