<svg xmlns="http://www.w3.org/2000/svg" viewBox="0 0 800 600" fill="none">
  <rect width="800" height="600" fill="#FAF8F5"/>
  <rect x="0" y="0" width="800" height="600" fill="url(#grid)" opacity="0.03"/>
  <defs><pattern id="grid" width="40" height="40" patternUnits="userSpaceOnUse"><path d="M 40 0 L 0 0 0 40" fill="none" stroke="#3C210C" stroke-width="1"/></pattern></defs>
  <circle cx="400" cy="280" r="80" stroke="#3C210C" stroke-width="2" fill="none"/>
  <circle cx="400" cy="280" r="50" stroke="#3C210C" stroke-width="2" fill="none"/>
  <circle cx="400" cy="280" r="20" stroke="#3C210C" stroke-width="2" fill="none"/>
  <circle cx="400" cy="280" r="4" fill="#3C210C"/>
  <circle cx="340" cy="220" r="8" fill="#3C210C" opacity="0.4"/>
  <circle cx="460" cy="220" r="8" fill="#3C210C" opacity="0.4"/>
  <circle cx="340" cy="340" r="8" fill="#3C210C" opacity="0.4"/>
  <circle cx="460" cy="340" r="8" fill="#3C210C" opacity="0.4"/>
  <line x1="348" y1="220" x2="380" y2="280" stroke="#3C210C" stroke-width="1.5" opacity="0.4"/>
  <line x1="452" y1="220" x2="420" y2="280" stroke="#3C210C" stroke-width="1.5" opacity="0.4"/>
  <line x1="348" y1="340" x2="380" y2="280" stroke="#3C210C" stroke-width="1.5" opacity="0.4"/>
  <line x1="452" y1="340" x2="420" y2="280" stroke="#3C210C" stroke-width="1.5" opacity="0.4"/>
  <path d="M 100 100 L 100 140 M 100 100 L 140 100" stroke="#3C210C" stroke-width="2" opacity="0.2"/>
  <path d="M 700 100 L 700 140 M 700 100 L 660 100" stroke="#3C210C" stroke-width="2" opacity="0.2"/>
  <path d="M 100 500 L 100 460 M 100 500 L 140 500" stroke="#3C210C" stroke-width="2" opacity="0.2"/>
  <path d="M 700 500 L 700 460 M 700 500 L 660 500" stroke="#3C210C" stroke-width="2" opacity="0.2"/>
  <text x="400" y="520" text-anchor="middle" font-family="monospace" font-size="14" fill="#3C210C" opacity="0.4">OVERVIEW</text>
</svg>