<svg xmlns="http://www.w3.org/2000/svg" viewBox="0 0 800 600" fill="none">
  <rect width="800" height="600" fill="#FAF8F5"/>
  <rect x="0" y="0" width="800" height="600" fill="url(#grid)" opacity="0.03"/>
  <defs><pattern id="grid" width="40" height="40" patternUnits="userSpaceOnUse"><path d="M 40 0 L 0 0 0 40" fill="none" stroke="#3C210C" stroke-width="1"/></pattern></defs>
  <rect x="320" y="200" width="160" height="120" rx="4" stroke="#3C210C" stroke-width="2" fill="#FFFFFF"/>
  <path d="M 320 240 L 480 240" stroke="#3C210C" stroke-width="2"/>
  <path d="M 340 260 L 460 260" stroke="#3C210C" stroke-width="1.5"/>
  <path d="M 340 280 L 440 280" stroke="#3C210C" stroke-width="1.5"/>
  <path d="M 340 300 L 460 300" stroke="#3C210C" stroke-width="1.5"/>
  <circle cx="400" cy="360" r="20" stroke="#3C210C" stroke-width="2" fill="#FFFFFF"/>
  <circle cx="400" cy="360" r="6" fill="#3C210C" opacity="0.6"/>
  <path d="M 300 360 L 280 360 M 500 360 L 520 360 M 400 340 L 400 320 M 400 380 L 400 400" stroke="#3C210C" stroke-width="2" stroke-linecap="round"/>
  <path d="M 100 100 L 100 140 M 100 100 L 140 100" stroke="#3C210C" stroke-width="2" opacity="0.2"/>
  <path d="M 700 100 L 700 140 M 700 100 L 660 100" stroke="#3C210C" stroke-width="2" opacity="0.2"/>
  <path d="M 100 500 L 100 460 M 100 500 L 140 500" stroke="#3C210C" stroke-width="2" opacity="0.2"/>
  <path d="M 700 500 L 700 460 M 700 500 L 660 500" stroke="#3C210C" stroke-width="2" opacity="0.2"/>
  <text x="400" y="520" text-anchor="middle" font-family="monospace" font-size="14" fill="#3C210C" opacity="0.4">BELANGRIJK</text>
</svg>