<svg xmlns="http://www.w3.org/2000/svg" viewBox="0 0 800 600" fill="none">
  <rect width="800" height="600" fill="#FAF8F5"/>
  <rect x="0" y="0" width="800" height="600" fill="url(#grid)" opacity="0.03"/>
  <defs><pattern id="grid" width="40" height="40" patternUnits="userSpaceOnUse"><path d="M 40 0 L 0 0 0 40" fill="none" stroke="#3C210C" stroke-width="1"/></pattern></defs>
  <circle cx="250" cy="200" r="30" stroke="#3C210C" stroke-width="2" fill="#FFFFFF"/>
  <circle cx="400" cy="150" r="30" stroke="#3C210C" stroke-width="2" fill="#FFFFFF"/>
  <circle cx="550" cy="200" r="30" stroke="#3C210C" stroke-width="2" fill="#FFFFFF"/>
  <circle cx="325" cy="300" r="30" stroke="#3C210C" stroke-width="2" fill="#FFFFFF"/>
  <circle cx="475" cy="300" r="30" stroke="#3C210C" stroke-width="2" fill="#FFFFFF"/>
  <circle cx="400" cy="400" r="30" stroke="#3C210C" stroke-width="2" fill="#FFFFFF"/>
  <line x1="275" y1="215" x2="375" y2="165" stroke="#3C210C" stroke-width="1.5"/>
  <line x1="425" y1="165" x2="525" y2="215" stroke="#3C210C" stroke-width="1.5"/>
  <line x1="250" y1="230" x2="325" y2="270" stroke="#3C210C" stroke-width="1.5"/>
  <line x1="550" y1="230" x2="475" y2="270" stroke="#3C210C" stroke-width="1.5"/>
  <line x1="355" y1="300" x2="445" y2="300" stroke="#3C210C" stroke-width="1.5"/>
  <line x1="325" y1="330" x2="400" y2="370" stroke="#3C210C" stroke-width="1.5"/>
  <line x1="475" y1="330" x2="400" y2="370" stroke="#3C210C" stroke-width="1.5"/>
  <path d="M 100 100 L 100 140 M 100 100 L 140 100" stroke="#3C210C" stroke-width="2" opacity="0.2"/>
  <path d="M 700 100 L 700 140 M 700 100 L 660 100" stroke="#3C210C" stroke-width="2" opacity="0.2"/>
  <path d="M 100 500 L 100 460 M 100 500 L 140 500" stroke="#3C210C" stroke-width="2" opacity="0.2"/>
  <path d="M 700 500 L 700 460 M 700 500 L 660 500" stroke="#3C210C" stroke-width="2" opacity="0.2"/>
  <text x="400" y="520" text-anchor="middle" font-family="monospace" font-size="14" fill="#3C210C" opacity="0.4">BELANGRIJK</text>
</svg>