<svg xmlns="http://www.w3.org/2000/svg" viewBox="0 0 800 600" fill="none">
  <rect width="800" height="600" fill="#FAF8F5"/>
  <rect x="0" y="0" width="800" height="600" fill="url(#grid)" opacity="0.03"/>
  <defs><pattern id="grid" width="40" height="40" patternUnits="userSpaceOnUse"><path d="M 40 0 L 0 0 0 40" fill="none" stroke="#3C210C" stroke-width="1"/></pattern></defs>
  <circle cx="300" cy="300" r="50" stroke="#3C210C" stroke-width="2" fill="#FFFFFF"/>
  <circle cx="500" cy="300" r="50" stroke="#3C210C" stroke-width="2" fill="#FFFFFF"/>
  <path d="M 350 300 L 450 300" stroke="#3C210C" stroke-width="3" stroke-linecap="round"/>
  <path d="M 340 280 L 460 280" stroke="#3C210C" stroke-width="2" stroke-linecap="round" opacity="0.4"/>
  <path d="M 340 320 L 460 320" stroke="#3C210C" stroke-width="2" stroke-linecap="round" opacity="0.4"/>
  <circle cx="300" cy="300" r="15" stroke="#3C210C" stroke-width="1.5" fill="none"/>
  <circle cx="500" cy="300" r="15" stroke="#3C210C" stroke-width="1.5" fill="none"/>
  <path d="M 200 200 L 250 250 M 600 200 L 550 250 M 200 400 L 250 350 M 600 400 L 550 350" stroke="#3C210C" stroke-width="1.5" stroke-linecap="round" opacity="0.3"/>
  <circle cx="200" cy="200" r="4" fill="#3C210C" opacity="0.3"/>
  <circle cx="600" cy="200" r="4" fill="#3C210C" opacity="0.3"/>
  <circle cx="200" cy="400" r="4" fill="#3C210C" opacity="0.3"/>
  <circle cx="600" cy="400" r="4" fill="#3C210C" opacity="0.3"/>
  <path d="M 100 100 L 100 140 M 100 100 L 140 100" stroke="#3C210C" stroke-width="2" opacity="0.2"/>
  <path d="M 700 100 L 700 140 M 700 100 L 660 100" stroke="#3C210C" stroke-width="2" opacity="0.2"/>
  <path d="M 100 500 L 100 460 M 100 500 L 140 500" stroke="#3C210C" stroke-width="2" opacity="0.2"/>
  <path d="M 700 500 L 700 460 M 700 500 L 660 500" stroke="#3C210C" stroke-width="2" opacity="0.2"/>
  <text x="400" y="520" text-anchor="middle" font-family="monospace" font-size="14" fill="#3C210C" opacity="0.4">OVERVIEW</text>
</svg>