<svg xmlns="http://www.w3.org/2000/svg" viewBox="0 0 800 600" fill="none">
  <rect width="800" height="600" fill="#FAF8F5"/>
  <rect x="0" y="0" width="800" height="600" fill="url(#grid)" opacity="0.03"/>
  <defs><pattern id="grid" width="40" height="40" patternUnits="userSpaceOnUse"><path d="M 40 0 L 0 0 0 40" fill="none" stroke="#3C210C" stroke-width="1"/></pattern></defs>
  <path d="M 250 350 L 300 300 L 350 320 L 400 250 L 450 270 L 500 200 L 550 220" stroke="#3C210C" stroke-width="3" fill="none" stroke-linecap="round" stroke-linejoin="round"/>
  <circle cx="250" cy="350" r="5" fill="#3C210C" opacity="0.3"/>
  <circle cx="300" cy="300" r="5" fill="#3C210C" opacity="0.4"/>
  <circle cx="350" cy="320" r="5" fill="#3C210C" opacity="0.5"/>
  <circle cx="400" cy="250" r="5" fill="#3C210C" opacity="0.6"/>
  <circle cx="450" cy="270" r="5" fill="#3C210C" opacity="0.7"/>
  <circle cx="500" cy="200" r="5" fill="#3C210C" opacity="0.8"/>
  <circle cx="550" cy="220" r="5" fill="#3C210C" opacity="0.9"/>
  <path d="M 250 350 L 250 380 M 550 220 L 550 190" stroke="#3C210C" stroke-width="2" stroke-dasharray="4 4"/>
  <text x="250" y="400" text-anchor="middle" font-family="sans-serif" font-size="12" fill="#3C210C" opacity="0.6">Start</text>
  <text x="550" y="170" text-anchor="middle" font-family="sans-serif" font-size="12" fill="#3C210C" opacity="0.6">Authority</text>
  <path d="M 100 100 L 100 140 M 100 100 L 140 100" stroke="#3C210C" stroke-width="2" opacity="0.2"/>
  <path d="M 700 100 L 700 140 M 700 100 L 660 100" stroke="#3C210C" stroke-width="2" opacity="0.2"/>
  <path d="M 100 500 L 100 460 M 100 500 L 140 500" stroke="#3C210C" stroke-width="2" opacity="0.2"/>
  <path d="M 700 500 L 700 460 M 700 500 L 660 500" stroke="#3C210C" stroke-width="2" opacity="0.2"/>
  <text x="400" y="520" text-anchor="middle" font-family="monospace" font-size="14" fill="#3C210C" opacity="0.4">RESULTATEN</text>
</svg>