<svg xmlns="http://www.w3.org/2000/svg" viewBox="0 0 800 600" fill="none">
  <rect width="800" height="600" fill="#FAF8F5"/>
  <rect x="0" y="0" width="800" height="600" fill="url(#grid)" opacity="0.03"/>
  <defs>
    <pattern id="grid" width="40" height="40" patternUnits="userSpaceOnUse">
      <path d="M 40 0 L 0 0 0 40" fill="none" stroke="#3C210C" stroke-width="1"/>
    </pattern>
  </defs>
  <circle cx="250" cy="300" r="40" stroke="#3C210C" stroke-width="2" fill="#FFFFFF"/>
  <text x="250" y="308" text-anchor="middle" font-family="sans-serif" font-size="24" font-weight="bold" fill="#3C210C">1</text>
  <circle cx="400" cy="300" r="40" stroke="#3C210C" stroke-width="2" fill="#FFFFFF"/>
  <text x="400" y="308" text-anchor="middle" font-family="sans-serif" font-size="24" font-weight="bold" fill="#3C210C">2</text>
  <circle cx="550" cy="300" r="40" stroke="#3C210C" stroke-width="2" fill="#FFFFFF"/>
  <text x="550" y="308" text-anchor="middle" font-family="sans-serif" font-size="24" font-weight="bold" fill="#3C210C">3</text>
  <line x1="290" y1="300" x2="360" y2="300" stroke="#3C210C" stroke-width="2" stroke-linecap="round"/>
  <polygon points="360,295 370,300 360,305" fill="#3C210C"/>
  <line x1="440" y1="300" x2="510" y2="300" stroke="#3C210C" stroke-width="2" stroke-linecap="round"/>
  <polygon points="510,295 520,300 510,305" fill="#3C210C"/>
  <path d="M 100 100 L 100 140 M 100 100 L 140 100" stroke="#3C210C" stroke-width="2" opacity="0.2"/>
  <path d="M 700 100 L 700 140 M 700 100 L 660 100" stroke="#3C210C" stroke-width="2" opacity="0.2"/>
  <path d="M 100 500 L 100 460 M 100 500 L 140 500" stroke="#3C210C" stroke-width="2" opacity="0.2"/>
  <path d="M 700 500 L 700 460 M 700 500 L 660 500" stroke="#3C210C" stroke-width="2" opacity="0.2"/>
  <text x="400" y="520" text-anchor="middle" font-family="monospace" font-size="14" fill="#3C210C" opacity="0.4">AANPAK</text>
</svg>
