<svg xmlns="http://www.w3.org/2000/svg" viewBox="0 0 800 600" fill="none">
  <rect width="800" height="600" fill="#FAF8F5"/>
  <rect x="0" y="0" width="800" height="600" fill="url(#grid)" opacity="0.03"/>
  <defs>
    <pattern id="grid" width="40" height="40" patternUnits="userSpaceOnUse">
      <path d="M 40 0 L 0 0 0 40" fill="none" stroke="#3C210C" stroke-width="1"/>
    </pattern>
  </defs>
  <rect x="300" y="160" width="200" height="280" rx="8" stroke="#3C210C" stroke-width="2" fill="#FFFFFF"/>
  <rect x="340" y="200" width="120" height="8" rx="4" fill="#3C210C" opacity="0.3"/>
  <rect x="340" y="230" width="100" height="6" rx="3" fill="#3C210C" opacity="0.15"/>
  <rect x="340" y="250" width="120" height="6" rx="3" fill="#3C210C" opacity="0.15"/>
  <rect x="340" y="270" width="80" height="6" rx="3" fill="#3C210C" opacity="0.15"/>
  <rect x="340" y="300" width="120" height="6" rx="3" fill="#3C210C" opacity="0.15"/>
  <rect x="340" y="320" width="100" height="6" rx="3" fill="#3C210C" opacity="0.15"/>
  <rect x="340" y="340" width="120" height="6" rx="3" fill="#3C210C" opacity="0.15"/>
  <circle cx="520" cy="380" r="40" stroke="#3C210C" stroke-width="3" fill="none"/>
  <line x1="548" y1="408" x2="580" y2="440" stroke="#3C210C" stroke-width="4" stroke-linecap="round"/>
  <circle cx="520" cy="380" r="20" stroke="#3C210C" stroke-width="1.5" fill="none" opacity="0.3"/>
  <path d="M 100 100 L 100 140 M 100 100 L 140 100" stroke="#3C210C" stroke-width="2" opacity="0.2"/>
  <path d="M 700 100 L 700 140 M 700 100 L 660 100" stroke="#3C210C" stroke-width="2" opacity="0.2"/>
  <path d="M 100 500 L 100 460 M 100 500 L 140 500" stroke="#3C210C" stroke-width="2" opacity="0.2"/>
  <path d="M 700 500 L 700 460 M 700 500 L 660 500" stroke="#3C210C" stroke-width="2" opacity="0.2"/>
  <text x="400" y="520" text-anchor="middle" font-family="monospace" font-size="14" fill="#3C210C" opacity="0.4">OVERVIEW</text>
</svg>
