<svg xmlns="http://www.w3.org/2000/svg" viewBox="0 0 800 600" fill="none">
  <rect width="800" height="600" fill="#FAF8F5"/>
  <rect x="0" y="0" width="800" height="600" fill="url(#grid)" opacity="0.03"/>
  <defs><pattern id="grid" width="40" height="40" patternUnits="userSpaceOnUse"><path d="M 40 0 L 0 0 0 40" fill="none" stroke="#3C210C" stroke-width="1"/></pattern></defs>
  <path d="M 300 200 L 500 200 L 500 380 L 300 380 Z" stroke="#3C210C" stroke-width="2" fill="#FFFFFF"/>
  <path d="M 320 220 L 480 220" stroke="#3C210C" stroke-width="2"/>
  <path d="M 320 250 L 480 250" stroke="#3C210C" stroke-width="2"/>
  <path d="M 320 280 L 480 280" stroke="#3C210C" stroke-width="2"/>
  <path d="M 320 310 L 480 310" stroke="#3C210C" stroke-width="2"/>
  <path d="M 320 340 L 480 340" stroke="#3C210C" stroke-width="2"/>
  <path d="M 320 370 L 480 370" stroke="#3C210C" stroke-width="2"/>
  <rect x="340" y="210" width="20" height="20" rx="2" fill="#3C210C" opacity="0.3"/>
  <rect x="340" y="240" width="20" height="20" rx="2" fill="#3C210C" opacity="0.3"/>
  <rect x="340" y="270" width="20" height="20" rx="2" fill="#3C210C" opacity="0.3"/>
  <rect x="340" y="300" width="20" height="20" rx="2" fill="#3C210C" opacity="0.3"/>
  <rect x="340" y="330" width="20" height="20" rx="2" fill="#3C210C" opacity="0.3"/>
  <rect x="340" y="360" width="20" height="20" rx="2" fill="#3C210C" opacity="0.3"/>
  <path d="M 100 100 L 100 140 M 100 100 L 140 100" stroke="#3C210C" stroke-width="2" opacity="0.2"/>
  <path d="M 700 100 L 700 140 M 700 100 L 660 100" stroke="#3C210C" stroke-width="2" opacity="0.2"/>
  <path d="M 100 500 L 100 460 M 100 500 L 140 500" stroke="#3C210C" stroke-width="2" opacity="0.2"/>
  <path d="M 700 500 L 700 460 M 700 500 L 660 500" stroke="#3C210C" stroke-width="2" opacity="0.2"/>
  <text x="400" y="520" text-anchor="middle" font-family="monospace" font-size="14" fill="#3C210C" opacity="0.4">OVERVIEW</text>
</svg>